<svg width="25" height="25" viewBox="0 0 25 25" fill="none" xmlns="http://www.w3.org/2000/svg">
  <path d="M20.7685 10.5C20.7685 15.493 15.2295 20.693 13.3695 22.299C13.1962 22.4293 12.9853 22.4998 12.7685 22.4998C12.5517 22.4998 12.3407 22.4293 12.1675 22.299C10.3075 20.693 4.76846 15.493 4.76846 10.5C4.76846 8.37827 5.61132 6.34344 7.11161 4.84315C8.6119 3.34285 10.6467 2.5 12.7685 2.5C14.8902 2.5 16.925 3.34285 18.4253 4.84315C19.9256 6.34344 20.7685 8.37827 20.7685 10.5Z" stroke="#E5E7EB" stroke-width="2" stroke-linecap="round" stroke-linejoin="round"/>
  <path d="M12.7685 13.5C14.4253 13.5 15.7685 12.1569 15.7685 10.5C15.7685 8.84315 14.4253 7.5 12.7685 7.5C11.1116 7.5 9.76846 8.84315 9.76846 10.5C9.76846 12.1569 11.1116 13.5 12.7685 13.5Z" stroke="#E5E7EB" stroke-width="2" stroke-linecap="round" stroke-linejoin="round"/>
</svg>
