<svg width="25" height="25" viewBox="0 0 25 25" fill="none" xmlns="http://www.w3.org/2000/svg">
  <path d="M14.1685 2.5H6.76846C6.23803 2.5 5.72932 2.71071 5.35425 3.08579C4.97918 3.46086 4.76846 3.96957 4.76846 4.5V20.5C4.76846 21.0304 4.97918 21.5391 5.35425 21.9142C5.72932 22.2893 6.23803 22.5 6.76846 22.5H18.7685C19.2989 22.5 19.8076 22.2893 20.1827 21.9142C20.5577 21.5391 20.7685 21.0304 20.7685 20.5V13.1" stroke="#E5E7EB" stroke-width="2" stroke-linecap="round" stroke-linejoin="round"/>
  <path d="M2.76846 6.5H6.76846" stroke="#E5E7EB" stroke-width="2" stroke-linecap="round" stroke-linejoin="round"/>
  <path d="M2.76846 10.5H6.76846" stroke="#E5E7EB" stroke-width="2" stroke-linecap="round" stroke-linejoin="round"/>
  <path d="M2.76846 14.5H6.76846" stroke="#E5E7EB" stroke-width="2" stroke-linecap="round" stroke-linejoin="round"/>
  <path d="M2.76846 18.5H6.76846" stroke="#E5E7EB" stroke-width="2" stroke-linecap="round" stroke-linejoin="round"/>
  <path d="M22.1465 6.126C22.5448 5.72764 22.7686 5.18736 22.7686 4.624C22.7686 4.06064 22.5448 3.52036 22.1465 3.122C21.7481 2.72364 21.2078 2.49985 20.6445 2.49985C20.0811 2.49985 19.5408 2.72364 19.1425 3.122L14.1325 8.134C13.8947 8.37162 13.7207 8.66533 13.6265 8.988L12.7895 11.858C12.7644 11.944 12.7629 12.0353 12.7851 12.1221C12.8074 12.2089 12.8525 12.2882 12.9159 12.3516C12.9793 12.4149 13.0585 12.4601 13.1454 12.4824C13.2322 12.5046 13.3234 12.5031 13.4095 12.478L16.2795 11.641C16.6021 11.5468 16.8958 11.3728 17.1335 11.135L22.1465 6.126Z" stroke="#E5E7EB" stroke-width="2" stroke-linecap="round" stroke-linejoin="round"/>
</svg>
