<svg width="169" height="183" viewBox="0 0 169 183" fill="none" xmlns="http://www.w3.org/2000/svg">
  <path d="M23.065 0.00662865C22.4588 -0.0594048 21.9188 0.375316 21.8527 0.980623C21.4008 5.01417 20.949 9.04772 20.4971 13.0868C17.9237 36.0499 15.3503 59.0186 12.7769 81.9817C12.6887 82.7466 13.394 83.3574 14.138 83.1703C23.9522 80.7161 33.7664 78.2618 43.5807 75.8131C44.027 75.703 44.3577 75.3233 44.4072 74.8666L52.0614 4.25478C52.1275 3.64948 51.6922 3.1102 51.086 3.04417L23.065 0.00662865Z" fill="white"/>
  <path d="M10.76 103.283L3.46407 170.566C3.36489 171.463 4.32923 172.09 5.11172 171.639L35.348 154.206C35.651 154.03 35.8549 153.722 35.8935 153.369L41.2111 104.356C41.2828 103.718 40.7923 103.156 40.1476 103.14L11.8897 102.309C11.3166 102.293 10.8206 102.722 10.76 103.289V103.283Z" fill="white"/>
  <path d="M53.2076 71.8731L55.8306 47.6773C55.8967 47.072 56.4422 46.6373 57.0429 46.7033L85.0639 49.7354C85.67 49.8014 86.1054 50.3462 86.0392 50.946L84.5349 64.8295C84.4853 65.2862 84.1546 65.6659 83.7083 65.776L54.5687 73.0562C53.8247 73.2433 53.1249 72.6325 53.2076 71.8676V71.8731Z" fill="white"/>
  <path d="M49.6753 104.433L44.3411 153.606C44.286 154.118 44.5946 154.602 45.085 154.767L72.4393 163.929C73.106 164.155 73.8114 163.704 73.883 163.005L80.1154 105.506C80.1871 104.868 79.6966 104.307 79.0519 104.29L50.7939 103.459C50.2209 103.443 49.7249 103.872 49.6643 104.439L49.6753 104.433Z" fill="white"/>
  <path d="M108.34 106.172L101.177 172.635C101.122 173.146 101.43 173.631 101.921 173.796L129.236 182.941C129.903 183.167 130.608 182.716 130.68 182.017L138.764 107.487C138.83 106.854 138.351 106.293 137.711 106.271L109.481 105.187C108.902 105.165 108.406 105.594 108.34 106.166V106.172Z" fill="white"/>
  <path d="M113.702 56.7514L116.711 29.0063C116.777 28.401 117.322 27.9663 117.923 28.0324L145.944 31.0644C146.55 31.1304 146.986 31.6752 146.919 32.275L145.029 49.7078C144.98 50.1646 144.649 50.5443 144.203 50.6543L115.063 57.9345C114.319 58.1216 113.619 57.5108 113.702 56.7459V56.7514Z" fill="white"/>
  <path d="M1.39212 93.9393L164.035 61.6709C164.669 61.5444 165.275 61.9901 165.347 62.6339L168.493 91.6557C168.565 92.2995 168.063 92.8608 167.419 92.8718L1.62356 96.1184C0.278991 96.1459 0.0695913 94.1979 1.38661 93.9393H1.39212Z" fill="white"/>
</svg>
